#!OML:ASF I:\Actors\actors\Patient Classification 1\Patient 1\Session 1\Subject1.ASF
:FULLY-SPECIFIED
:DEGREES
1198
root 1.58845 17.538 9.49241 22.2911 -13.6769 -9.45452
lowerback 6.01636 -0.755697 3.72149
upperback -4.32233 -0.542135 1.75034
thorax -7.95094 -0.42027 -0.174149
lowerneck -17.114 3.82013 5.8546
upperneck 5.74486 3.65412 1.38149
head 4.54698 2.02483 -0.177641
rclavicle -2.80286e-014 2.38542e-014
rhumerus -35.6385 56.1637 -109.053
rradius 93.0336
rwrist -57.3547
rhand 14.4226 -70.1605
rfingers 7.12502
rthumb 39.3079 -1704.41
lclavicle -2.80286e-014 2.38542e-014
lhumerus -31.704 -45.2368 93.4069
lradius 77.9586
lwrist 85.9957
lhand -35.7989 28.5132
lfingers 7.12502
lthumb -8.91572 58.3048
rfemur -22.0652 31.733 11.7222
rtibia 2.05073
rfoot -8.77281 -23.1066
rtoes -0.649895
lfemur -4.05449 -52.5958 -9.03621
ltibia -7.04305
lfoot -60.9227 58.0783
ltoes 41.8143
1199
root 1.58364 17.5463 9.47983 22.0806 -13.4659 -9.51785
lowerback 6.23313 -0.741503 3.80871
upperback -4.20246 -0.503133 1.79636
thorax -7.94807 -0.402944 -0.178478
lowerneck -17.2953 3.77111 5.66209
upperneck 5.85853 3.60896 1.44371
head 4.60544 2.00522 -0.127799
rclavicle -1.51076e-014 3.4191e-014
rhumerus -30.2841 56.581 -106.533
rradius 90.1323
rwrist -56.8077
rhand 14.8114 -70.9191
rfingers 7.12502
rthumb 39.6741 -1703.76
lclavicle -1.51076e-014 3.4191e-014
lhumerus -25.9412 -44.766 89.9502
lradius 74.2095
lwrist 84.6467
lhand -33.8643 28.3663
lfingers 7.12502
lthumb -7.04861 58.2289
rfemur -21.7859 32.1435 11.8932
rtibia 1.98801
rfoot -8.91324 -23.6141
rtoes 0.177121
lfemur -3.84081 -52.8633 -9.04326
ltibia -7.01219
lfoot -60.939 58.246
ltoes 41.5703
1200
root 1.58053 17.556 9.46805 21.8529 -13.1221 -9.53818
lowerback 6.49794 -0.810899 3.93345
upperback -4.11763 -0.569046 1.8345
thorax -8.01535 -0.440506 -0.196769
lowerneck -17.4018 3.76674 5.61089
upperneck 5.95209 3.60706 1.42204
head 4.6508 2.00396 -0.123863
rclavicle 3.16068e-014 -1.27222e-014
rhumerus -25.0143 56.7567 -104.186
rradius 86.9102
rwrist -56.0997
rhand 15.0777 -71.5718
rfingers 7.12502
rthumb 39.9248 -1703.18
lclavicle 3.16068e-014 -1.27222e-014
lhumerus -20.3801 -43.787 86.7989
lradius 70.0391
lwrist 82.7698
lhand -31.9089 27.3626
lfingers 7.12502
lthumb -5.16073 57.2798
rfemur -21.4615 32.6428 12.0137
rtibia 1.86773
rfoot -9.09457 -24.3809
rtoes 0.920699
lfemur -3.64815 -53.2695 -9.03614
ltibia -7.00151
lfoot -61.1078 58.3041
ltoes 41.5882
1201
root 1.57916 17.5626 9.45164 21.7945 -12.9635 -9.55365
lowerback 6.66406 -0.829261 3.99841
upperback -4.0983 -0.576676 1.85472
thorax -8.09287 -0.447778 -0.208448
lowerneck -17.4384 3.78257 5.6226
upperneck 5.97648 3.63246 1.32832
head 4.66638 2.01107 -0.151793
rclavicle -5.96354e-016 3.26007e-014
rhumerus -19.5503 56.3672 -101.727
rradius 83.2801
rwrist -53.9132
rhand 17.7451 -72.294
rfingers 7.12502
rthumb 42.429 -1703.26
lclavicle -5.96354e-016 3.26007e-014
lhumerus -15.0402 -42.3818 84.0489
lradius 65.5203
lwrist 80.0618
lhand -30.2191 26.4812
lfingers 7.12502
lthumb -3.52901 56.4317
rfemur -21.4542 32.8475 12.0238
rtibia 1.83854
rfoot -9.00121 -24.7463
rtoes 1.07493
lfemur -3.66803 -53.4719 -8.91564
ltibia -7.02205
lfoot -61.5472 58.0673
ltoes 42.0281
1202
root 1.57657 17.5668 9.43244 21.8475 -13.0068 -9.60041
lowerback 6.71264 -0.782897 3.97903
upperback -4.05775 -0.513715 1.87141
thorax -8.07474 -0.414657 -0.188675
lowerneck -17.5365 3.79123 5.62632
upperneck 5.96186 3.64376 1.25801
head 4.67847 2.01188 -0.171792
rclavicle -4.45278e-014 1.11319e-014
rhumerus -14.677 55.4991 -99.8722
rradius 79.6151
rwrist -52.0921
rhand 18.7362 -72.5592
rfingers 7.12502
rthumb 43.356 -1703.32
lclavicle -4.45278e-014 1.11319e-014
lhumerus -9.91334 -40.4069 81.6901
lradius 60.7268
lwrist 76.837
lhand -28.5985 25.9821
lfingers 7.12502
lthumb -1.96394 55.9528
rfemur -21.659 32.8794 12.0052
rtibia 1.90371
rfoot -8.72786 -24.7464
rtoes 0.969312
lfemur -3.74101 -53.4534 -8.75391
ltibia -7.10428
lfoot -62.0438 57.7247
ltoes 42.6486
1203
root 1.57591 17.5707 9.41399 21.9345 -13.0119 -9.57207
lowerback 6.72327 -0.762217 3.94778
upperback -4.01739 -0.490485 1.8629
thorax -8.03607 -0.400872 -0.183967
lowerneck -17.7097 3.78927 5.61466
upperneck 5.94376 3.63639 1.21063
head 4.70005 2.0047 -0.18268
rclavicle -3.47873e-014 -2.38542e-015
rhumerus -10.8913 53.5376 -99.1645
rradius 76.0191
rwrist -49.5652
rhand 19.1694 -73.0237
rfingers 7.12502
rthumb 43.7605 -1703
lclavicle -3.47873e-014 -2.38542e-015
lhumerus -5.13999 -37.7921 79.9147
lradius 55.6074
lwrist 73.1589
lhand -26.8733 25.3568
lfingers 7.12502
lthumb -0.297714 55.3363
rfemur -21.8968 32.8521 11.8719
rtibia 1.92984
rfoot -8.48263 -24.77
rtoes 0.968293
lfemur -3.99301 -53.4809 -8.53464
ltibia -7.14982
lfoot -62.3069 57.5674
ltoes 43.0516
1204
root 1.57437 17.575 9.39642 22.0364 -13.0395 -9.49031
lowerback 6.73933 -0.749531 3.84146
upperback -4.00763 -0.484049 1.85792
thorax -8.03302 -0.391918 -0.130592
lowerneck -17.8187 3.80018 5.559
upperneck 5.86127 3.65816 1.20174
head 4.69043 2.01187 -0.173752
rclavicle -2.20651e-014 1.59028e-014
rhumerus -6.65468 52.4182 -98.1386
rradius 71.6166
rwrist -47.509
rhand 19.2836 -72.2759
rfingers 7.12502
rthumb 43.8672 -1703.79
lclavicle -2.20651e-014 1.59028e-014
lhumerus -0.868887 -34.3114 78.9772
lradius 50.1404
lwrist 68.8942
lhand -25.0316 24.574
lfingers 7.12502
lthumb 1.48108 54.5486
rfemur -22.1487 32.8283 11.6443
rtibia 1.90921
rfoot -8.32219 -24.8158
rtoes 1.10015
lfemur -4.28836 -53.4998 -8.34248
ltibia -7.19899
lfoot -62.3273 57.6067
ltoes 43.1083
1205
root 1.57228 17.5795 9.38012 22.1359 -13.0445 -9.46134
lowerback 6.76483 -0.774082 3.76775
upperback -4.00024 -0.520955 1.89245
thorax -8.03967 -0.404934 -0.0475953
lowerneck -17.7697 3.85133 5.51464
upperneck 5.64618 3.7489 1.1563
head 4.61664 2.04774 -0.175879
rclavicle -1.19271e-015 -2.14687e-014
rhumerus -2.80765 51.0192 -97.6384
rradius 66.8297
rwrist -44.8435
rhand 19.6855 -71.2247
rfingers 7.12502
rthumb 44.242 -1704.98
lclavicle -1.19271e-015 -2.14687e-014
lhumerus 2.83622 -29.7102 78.9511
lradius 44.5015
lwrist 63.9829
lhand -23.3074 23.7374
lfingers 7.12502
lthumb 3.14628 53.6939
rfemur -22.3755 33.0065 11.4292
rtibia 1.85434
rfoot -8.26573 -25.047
rtoes 1.41504
lfemur -4.54742 -53.5215 -8.10426
ltibia -7.25486
lfoot -62.2084 57.7206
ltoes 43.0307
1206
root 1.57289 17.5829 9.36449 22.2599 -12.9879 -9.47703
lowerback 6.77427 -0.85294 3.79883
upperback -3.99308 -0.619995 1.94165
thorax -8.04061 -0.453595 0.000626991
lowerneck -17.7229 3.94865 5.58102
upperneck 5.44476 3.89181 0.950286
head 4.55369 2.10154 -0.240625
rclavicle 6.55989e-015 2.14687e-014
rhumerus 0.523172 49.2743 -97.7529
rradius 61.7726
rwrist -41.8685
rhand 20.16 -69.8963
rfingers 7.12502
rthumb 44.6841 -1706.48
lclavicle 6.55989e-015 2.14687e-014
lhumerus 6.18142 -23.9718 79.7173
lradius 38.7862
lwrist 58.3936
lhand -21.9501 22.8265
lfingers 7.12502
lthumb 4.45696 52.7596
rfemur -22.6111 33.3191 11.2111
rtibia 1.76722
rfoot -8.19513 -25.4403
rtoes 1.59249
lfemur -4.94568 -53.5747 -7.71096
ltibia -7.24815
lfoot -62.0019 57.8942
ltoes 42.8919
1207
root 1.57193 17.5876 9.34826 22.3794 -13.0464 -9.50616
lowerback 6.82336 -0.896715 3.76692
upperback -3.96725 -0.677453 1.98132
thorax -8.04212 -0.478544 0.0686379
lowerneck -17.8769 4.05624 5.71513
upperneck 5.36168 4.02253 0.676491
head 4.56184 2.14895 -0.333279
rclavicle -1.72943e-014 -5.56597e-015
rhumerus 3.35081 47.217 -98.3405
rradius 56.7047
rwrist -38.9492
rhand 20.2887 -68.4373
rfingers 7.12502
rthumb 44.8039 -1707.99
lclavicle -1.72943e-014 -5.56597e-015
lhumerus 9.37539 -16.9342 81.3214
lradius 33.073
lwrist 51.7528
lhand -20.9518 22.0417
lfingers 7.12502
lthumb 5.42086 51.9524
rfemur -22.8513 33.4538 11.0752
rtibia 1.74174
rfoot -8.10476 -25.5561
rtoes 1.81475
lfemur -5.26074 -53.5183 -7.40065
ltibia -7.245
lfoot -62.0062 57.9051
ltoes 42.9613
